<?xml version="1.0" encoding="utf-8"?>
<!-- Generator: Adobe Illustrator 16.0.0, SVG Export Plug-In . SVG Version: 6.00 Build 0)  -->
<!DOCTYPE svg PUBLIC "-//W3C//DTD SVG 1.1//EN" "http://www.w3.org/Graphics/SVG/1.1/DTD/svg11.dtd">
<svg version="1.1" id="Layer_1" xmlns="http://www.w3.org/2000/svg" xmlns:xlink="http://www.w3.org/1999/xlink" x="0px" y="0px"
	 width="16px" height="16px" viewBox="0 0 16 16" enable-background="new 0 0 16 16" xml:space="preserve">
<path fill="#FFFFFF" d="M14.688,15H3.847c-1.401,0-2.533-1.133-2.533-2.532V4.872H4.71V1h9.978v1.638h-8.31v9.83
	c0,0.298-0.06,0.597-0.148,0.894h8.458V15L14.688,15z M2.952,6.511v5.957c0,0.478,0.387,0.894,0.895,0.894
	c0.476,0,0.893-0.387,0.893-0.894V6.511H2.952z M14.688,11.962H7.509v-1.638h7.179V11.962z M14.688,8.805H7.509V7.166h7.179V8.805z
	 M14.688,5.646H7.509V4.009h7.179V5.646z"/>
</svg>
